<svg xmlns="http://www.w3.org/2000/svg" xmlns:xlink="http://www.w3.org/1999/xlink" width="500" zoomAndPan="magnify" viewBox="0 0 375 374.999991" height="500" preserveAspectRatio="xMidYMid meet" version="1.0"><defs><g/><clipPath id="91f022aed5"><path d="M 0 0 L 368 0 L 368 365.796875 L 0 365.796875 Z M 0 0 " clip-rule="nonzero"/></clipPath><clipPath id="7922b0895e"><path d="M 33.75 0 L 334.078125 0 C 352.71875 0 367.828125 15.109375 367.828125 33.75 L 367.828125 332.046875 C 367.828125 350.6875 352.71875 365.796875 334.078125 365.796875 L 33.75 365.796875 C 15.109375 365.796875 0 350.6875 0 332.046875 L 0 33.75 C 0 15.109375 15.109375 0 33.75 0 Z M 33.75 0 " clip-rule="nonzero"/></clipPath><clipPath id="5693ef484e"><path d="M 0 0 L 367.921875 0 L 367.921875 365.796875 L 0 365.796875 Z M 0 0 " clip-rule="nonzero"/></clipPath><clipPath id="ba964ee876"><path d="M 33.75 0 L 334.078125 0 C 352.71875 0 367.828125 15.109375 367.828125 33.75 L 367.828125 332.046875 C 367.828125 350.6875 352.71875 365.796875 334.078125 365.796875 L 33.75 365.796875 C 15.109375 365.796875 0 350.6875 0 332.046875 L 0 33.75 C 0 15.109375 15.109375 0 33.75 0 Z M 33.75 0 " clip-rule="nonzero"/></clipPath><clipPath id="5beee476c2"><rect x="0" width="368" y="0" height="366"/></clipPath><clipPath id="7cf1a2c627"><rect x="0" width="333" y="0" height="375"/></clipPath></defs><g clip-path="url(#91f022aed5)"><g clip-path="url(#7922b0895e)"><g transform="matrix(1, 0, 0, 1, 0, 0)"><g clip-path="url(#5beee476c2)"><g clip-path="url(#5693ef484e)"><g clip-path="url(#ba964ee876)"><path fill="#4a7b5a" d="M 0 0 L 367.226562 0 L 367.226562 365.796875 L 0 365.796875 Z M 0 0 " fill-opacity="1" fill-rule="nonzero"/></g></g></g></g></g></g><g transform="matrix(1, 0, 0, 1, 14, 0)"><g clip-path="url(#7cf1a2c627)"><g fill="#ffffff" fill-opacity="1"><g transform="translate(0.675909, 317.897358)"><g><path d="M 147.625 7.046875 C 125.125 7.046875 104.046875 1.003906 84.390625 -11.078125 C 64.742188 -23.171875 49.125 -39.96875 37.53125 -61.46875 C 25.945312 -82.96875 20.15625 -106.984375 20.15625 -133.515625 C 20.15625 -160.722656 25.78125 -185.078125 37.03125 -206.578125 C 48.28125 -228.078125 63.476562 -244.785156 82.625 -256.703125 C 101.769531 -268.628906 122.929688 -274.59375 146.109375 -274.59375 C 178.023438 -274.59375 206.070312 -262.5 230.25 -238.3125 L 230.25 -267.546875 L 297.265625 -267.546875 L 297.265625 0 L 230.25 0 L 230.25 -28.21875 C 218.164062 -16.457031 205.488281 -7.640625 192.21875 -1.765625 C 178.945312 4.109375 164.082031 7.046875 147.625 7.046875 Z M 159.71875 -54.421875 C 173.488281 -54.421875 186 -57.691406 197.25 -64.234375 C 208.507812 -70.785156 217.328125 -80.191406 223.703125 -92.453125 C 230.085938 -104.710938 233.28125 -118.738281 233.28125 -134.53125 C 233.28125 -149.976562 230.085938 -163.660156 223.703125 -175.578125 C 217.328125 -187.503906 208.59375 -196.742188 197.5 -203.296875 C 186.414062 -209.847656 173.820312 -213.125 159.71875 -213.125 C 145.269531 -213.125 132.585938 -209.597656 121.671875 -202.546875 C 110.753906 -195.492188 102.359375 -186.003906 96.484375 -174.078125 C 90.609375 -162.148438 87.671875 -148.796875 87.671875 -134.015625 C 87.671875 -118.898438 90.773438 -105.296875 96.984375 -93.203125 C 103.203125 -81.117188 111.769531 -71.632812 122.6875 -64.75 C 133.601562 -57.863281 145.945312 -54.421875 159.71875 -54.421875 Z M 159.71875 -54.421875 "/></g></g></g></g></g></svg>