<svg class="aspire-logo" xmlns="http://www.w3.org/2000/svg" xmlns:xlink="http://www.w3.org/1999/xlink" viewBox="30 138 310 70" preserveAspectRatio="xMidYMid meet"><defs><g/><clipPath id="9093b7fda9"><rect x="0" width="51" y="0" height="104"/></clipPath><clipPath id="522941ae85"><rect x="0" width="102" y="0" height="104"/></clipPath><clipPath id="30572141c9"><path d="M 175.28125 156.042969 L 334.351562 156.042969 L 334.351562 199.644531 L 175.28125 199.644531 Z M 175.28125 156.042969 " clip-rule="nonzero"/></clipPath><clipPath id="05eda2f101"><path d="M 197.082031 156.042969 L 312.539062 156.042969 C 324.578125 156.042969 334.339844 165.804688 334.339844 177.84375 C 334.339844 189.882812 324.578125 199.644531 312.539062 199.644531 L 197.082031 199.644531 C 185.042969 199.644531 175.28125 189.882812 175.28125 177.84375 C 175.28125 165.804688 185.042969 156.042969 197.082031 156.042969 Z M 197.082031 156.042969 " clip-rule="nonzero"/></clipPath><clipPath id="015c215be8"><path d="M 0.28125 0.0429688 L 159.351562 0.0429688 L 159.351562 43.644531 L 0.28125 43.644531 Z M 0.28125 0.0429688 " clip-rule="nonzero"/></clipPath><clipPath id="2aa591abb1"><path d="M 22.082031 0.0429688 L 137.539062 0.0429688 C 149.578125 0.0429688 159.339844 9.804688 159.339844 21.84375 C 159.339844 33.882812 149.578125 43.644531 137.539062 43.644531 L 22.082031 43.644531 C 10.042969 43.644531 0.28125 33.882812 0.28125 21.84375 C 0.28125 9.804688 10.042969 0.0429688 22.082031 0.0429688 Z M 22.082031 0.0429688 " clip-rule="nonzero"/></clipPath><clipPath id="c670c44844"><rect x="0" width="160" y="0" height="44"/></clipPath><clipPath id="0607159fbd"><rect x="0" width="96" y="0" height="19"/></clipPath><clipPath id="69ad613805"><path d="M 4 41 L 43.960938 41 L 43.960938 82 L 4 82 Z M 4 41 " clip-rule="nonzero"/></clipPath><clipPath id="c43234a580"><rect x="0" width="44" y="0" height="103"/></clipPath><clipPath id="a275063de8"><path d="M 146 140 L 157 140 L 157 154 L 146 154 Z M 146 140 " clip-rule="nonzero"/></clipPath><clipPath id="0cdf386783"><path d="M 146.65625 153.734375 L 146.414062 140.773438 L 156.03125 140.59375 L 156.273438 153.554688 Z M 146.65625 153.734375 " clip-rule="nonzero"/></clipPath><clipPath id="3eceb651f5"><path d="M 146.566406 148.925781 L 146.503906 145.613281 C 146.480469 144.339844 146.964844 143.105469 147.851562 142.1875 C 148.734375 141.269531 149.949219 140.738281 151.222656 140.714844 C 152.5 140.691406 153.730469 141.175781 154.652344 142.058594 C 155.570312 142.945312 156.097656 144.160156 156.121094 145.433594 L 156.183594 148.746094 C 156.207031 150.019531 155.722656 151.253906 154.839844 152.171875 C 153.953125 153.089844 152.738281 153.621094 151.464844 153.644531 C 150.1875 153.667969 148.957031 153.183594 148.039062 152.296875 C 147.117188 151.414062 146.589844 150.199219 146.566406 148.925781 Z M 146.566406 148.925781 " clip-rule="nonzero"/></clipPath><clipPath id="a90dd9b8a1"><path d="M 0.398438 0.640625 L 10.238281 0.640625 L 10.238281 13.839844 L 0.398438 13.839844 Z M 0.398438 0.640625 " clip-rule="nonzero"/></clipPath><clipPath id="a413de6599"><path d="M 0.65625 13.734375 L 0.414062 0.773438 L 10.03125 0.59375 L 10.273438 13.554688 Z M 0.65625 13.734375 " clip-rule="nonzero"/></clipPath><clipPath id="0f651c3e51"><path d="M 0.566406 8.925781 L 0.503906 5.613281 C 0.480469 4.339844 0.964844 3.105469 1.851562 2.1875 C 2.734375 1.269531 3.949219 0.738281 5.222656 0.714844 C 6.5 0.691406 7.730469 1.175781 8.652344 2.058594 C 9.570312 2.945312 10.097656 4.160156 10.121094 5.433594 L 10.183594 8.746094 C 10.207031 10.019531 9.722656 11.253906 8.839844 12.171875 C 7.953125 13.089844 6.738281 13.621094 5.464844 13.644531 C 4.1875 13.667969 2.957031 13.183594 2.039062 12.296875 C 1.117188 11.414062 0.589844 10.199219 0.566406 8.925781 Z M 0.566406 8.925781 " clip-rule="nonzero"/></clipPath><clipPath id="8f0fef1cb6"><rect x="0" width="11" y="0" height="14"/></clipPath></defs><g transform="matrix(1, 0, 0, 1, 34, 117)"><g clip-path="url(#9093b7fda9)"><g fill="#1e1e1e" fill-opacity="1"><g transform="translate(0.892463, 80.504152)"><g><path d="M 23.109375 0.9375 C 19.484375 0.9375 16.191406 0.03125 13.234375 -1.78125 C 10.273438 -3.601562 7.9375 -6.050781 6.21875 -9.125 C 4.507812 -12.195312 3.65625 -15.523438 3.65625 -19.109375 C 3.65625 -22.679688 4.523438 -25.984375 6.265625 -29.015625 C 8.003906 -32.046875 10.375 -34.46875 13.375 -36.28125 C 16.382812 -38.09375 19.679688 -39 23.265625 -39 C 26.359375 -39 29.191406 -38.332031 31.765625 -37 C 34.347656 -35.664062 36.566406 -33.6875 38.421875 -31.0625 L 38.421875 -38 L 43.21875 -38 L 43.21875 0 L 38.421875 0 L 38.421875 -6.515625 C 36.378906 -4.035156 34.066406 -2.171875 31.484375 -0.921875 C 28.910156 0.316406 26.117188 0.9375 23.109375 0.9375 Z M 23.609375 -3.5 C 26.234375 -3.5 28.710938 -4.128906 31.046875 -5.390625 C 33.390625 -6.660156 35.265625 -8.453125 36.671875 -10.765625 C 38.078125 -13.078125 38.78125 -15.765625 38.78125 -18.828125 C 38.78125 -21.734375 38.113281 -24.351562 36.78125 -26.6875 C 35.445312 -29.03125 33.632812 -30.878906 31.34375 -32.234375 C 29.050781 -33.597656 26.5 -34.28125 23.6875 -34.28125 C 20.875 -34.28125 18.3125 -33.578125 16 -32.171875 C 13.6875 -30.765625 11.882812 -28.890625 10.59375 -26.546875 C 9.300781 -24.210938 8.65625 -21.6875 8.65625 -18.96875 C 8.65625 -16.25 9.3125 -13.707031 10.625 -11.34375 C 11.9375 -8.976562 13.738281 -7.078125 16.03125 -5.640625 C 18.320312 -4.210938 20.847656 -3.5 23.609375 -3.5 Z M 23.609375 -3.5 "/></g></g></g></g></g><g transform="matrix(1, 0, 0, 1, 78, 117)"><g clip-path="url(#522941ae85)"><g fill="#1e1e1e" fill-opacity="1"><g transform="translate(1.059906, 80.503074)"><g><path d="M 13.671875 1 C 11.523438 1 9.445312 0.523438 7.4375 -0.421875 C 5.4375 -1.378906 3.769531 -2.71875 2.4375 -4.4375 L 5.515625 -7.9375 C 8.046875 -5.125 10.691406 -3.71875 13.453125 -3.71875 C 14.691406 -3.71875 15.847656 -3.992188 16.921875 -4.546875 C 17.992188 -5.097656 18.851562 -5.859375 19.5 -6.828125 C 20.144531 -7.804688 20.46875 -8.867188 20.46875 -10.015625 C 20.46875 -11.304688 20.144531 -12.40625 19.5 -13.3125 C 18.851562 -14.21875 17.816406 -15.050781 16.390625 -15.8125 C 13.378906 -17.4375 11.085938 -18.773438 9.515625 -19.828125 C 7.941406 -20.878906 6.65625 -22.144531 5.65625 -23.625 C 4.65625 -25.101562 4.15625 -26.867188 4.15625 -28.921875 C 4.15625 -30.878906 4.617188 -32.617188 5.546875 -34.140625 C 6.472656 -35.671875 7.734375 -36.863281 9.328125 -37.71875 C 10.929688 -38.582031 12.691406 -39.015625 14.609375 -39.015625 C 16.554688 -39.015625 18.363281 -38.582031 20.03125 -37.71875 C 21.707031 -36.863281 23.40625 -35.578125 25.125 -33.859375 L 21.96875 -30.640625 C 20.726562 -31.828125 19.5 -32.726562 18.28125 -33.34375 C 17.070312 -33.96875 15.75 -34.28125 14.3125 -34.28125 C 13.257812 -34.28125 12.304688 -34.050781 11.453125 -33.59375 C 10.597656 -33.144531 9.90625 -32.539062 9.375 -31.78125 C 8.851562 -31.019531 8.59375 -30.160156 8.59375 -29.203125 C 8.59375 -27.910156 8.972656 -26.785156 9.734375 -25.828125 C 10.492188 -24.878906 11.660156 -23.976562 13.234375 -23.125 C 16.296875 -21.445312 18.597656 -20.070312 20.140625 -19 C 21.691406 -17.925781 22.910156 -16.695312 23.796875 -15.3125 C 24.679688 -13.925781 25.125 -12.234375 25.125 -10.234375 C 25.125 -8.234375 24.644531 -6.375 23.6875 -4.65625 C 22.738281 -2.9375 21.390625 -1.5625 19.640625 -0.53125 C 17.898438 0.488281 15.910156 1 13.671875 1 Z M 13.671875 1 "/></g></g></g><g fill="#1e1e1e" fill-opacity="1"><g transform="translate(22.957645, 80.503074)"><g><path d="M 10.59375 -38.015625 L 10.59375 -31.0625 C 12.457031 -33.6875 14.675781 -35.664062 17.25 -37 C 19.820312 -38.34375 22.640625 -39.015625 25.703125 -39.015625 C 29.328125 -39.015625 32.640625 -38.101562 35.640625 -36.28125 C 38.648438 -34.46875 41.023438 -32.046875 42.765625 -29.015625 C 44.503906 -25.992188 45.375 -22.691406 45.375 -19.109375 C 45.375 -15.535156 44.515625 -12.207031 42.796875 -9.125 C 41.085938 -6.050781 38.738281 -3.601562 35.75 -1.78125 C 32.769531 0.03125 29.46875 0.9375 25.84375 0.9375 C 19.78125 0.9375 14.695312 -1.546875 10.59375 -6.515625 L 10.59375 13.890625 L 5.71875 13.890625 L 5.71875 -38.015625 Z M 25.34375 -3.5 C 28.101562 -3.5 30.628906 -4.203125 32.921875 -5.609375 C 35.210938 -7.023438 37.023438 -8.925781 38.359375 -11.3125 C 39.703125 -13.695312 40.375 -16.25 40.375 -18.96875 C 40.375 -21.6875 39.726562 -24.210938 38.4375 -26.546875 C 37.144531 -28.890625 35.34375 -30.765625 33.03125 -32.171875 C 30.71875 -33.578125 28.15625 -34.28125 25.34375 -34.28125 C 22.519531 -34.28125 19.960938 -33.597656 17.671875 -32.234375 C 15.390625 -30.878906 13.578125 -29.03125 12.234375 -26.6875 C 10.898438 -24.351562 10.234375 -21.734375 10.234375 -18.828125 C 10.234375 -15.773438 10.9375 -13.085938 12.34375 -10.765625 C 13.75 -8.453125 15.609375 -6.660156 17.921875 -5.390625 C 20.242188 -4.128906 22.71875 -3.5 25.34375 -3.5 Z M 25.34375 -3.5 "/></g></g></g><g fill="#1e1e1e" fill-opacity="1"><g transform="translate(66.038351, 80.503074)"><g><path d="M 7.875 -45.59375 C 6.78125 -45.59375 5.835938 -46 5.046875 -46.8125 C 4.253906 -47.625 3.859375 -48.578125 3.859375 -49.671875 C 3.859375 -50.816406 4.253906 -51.769531 5.046875 -52.53125 C 5.835938 -53.300781 6.78125 -53.6875 7.875 -53.6875 C 8.96875 -53.6875 9.921875 -53.289062 10.734375 -52.5 C 11.546875 -51.71875 11.953125 -50.773438 11.953125 -49.671875 C 11.953125 -48.578125 11.546875 -47.625 10.734375 -46.8125 C 9.921875 -46 8.96875 -45.59375 7.875 -45.59375 Z M 5.515625 -38.015625 L 10.375 -38.015625 L 10.375 0 L 5.515625 0 Z M 5.515625 -38.015625 "/></g></g></g><g fill="#1e1e1e" fill-opacity="1"><g transform="translate(75.984893, 80.503074)"><g><path d="M 10.59375 -38.015625 L 10.59375 -32.5 C 12.070312 -34.644531 13.609375 -36.265625 15.203125 -37.359375 C 16.804688 -38.460938 18.539062 -39.015625 20.40625 -39.015625 C 21.3125 -39.015625 22.109375 -38.90625 22.796875 -38.6875 C 23.484375 -38.46875 24.140625 -38.144531 24.765625 -37.71875 L 22.1875 -33.5625 C 21.226562 -34.039062 20.367188 -34.28125 19.609375 -34.28125 C 17.890625 -34.28125 16.347656 -33.648438 14.984375 -32.390625 C 13.628906 -31.128906 12.554688 -29.351562 11.765625 -27.0625 C 10.984375 -24.769531 10.59375 -22.144531 10.59375 -19.1875 L 10.59375 0 L 5.71875 0 L 5.71875 -38.015625 Z M 10.59375 -38.015625 "/></g></g></g></g></g><g clip-path="url(#30572141c9)"><g clip-path="url(#05eda2f101)"><g transform="matrix(1, 0, 0, 1, 175, 156)"><g clip-path="url(#c670c44844)"><g clip-path="url(#015c215be8)"><g clip-path="url(#2aa591abb1)"><path fill="#4a7b5a" d="M 0.28125 0.0429688 L 159.351562 0.0429688 L 159.351562 43.644531 L 0.28125 43.644531 Z M 0.28125 0.0429688 " fill-opacity="1" fill-rule="nonzero"/></g></g></g></g></g></g><g transform="matrix(1, 0, 0, 1, 230, 170)"><g clip-path="url(#0607159fbd)"><g fill="#ffffff" fill-opacity="1"><g transform="translate(1.140559, 14.582876)"><g><path d="M 1.03125 -10.25 L 5.875 -10.25 C 6.988281 -10.25 7.976562 -10.035156 8.84375 -9.609375 C 9.71875 -9.191406 10.394531 -8.597656 10.875 -7.828125 C 11.351562 -7.054688 11.59375 -6.15625 11.59375 -5.125 C 11.59375 -4.09375 11.351562 -3.191406 10.875 -2.421875 C 10.394531 -1.648438 9.71875 -1.050781 8.84375 -0.625 C 7.976562 -0.207031 6.988281 0 5.875 0 L 1.03125 0 Z M 5.75 -2.3125 C 6.632812 -2.3125 7.34375 -2.5625 7.875 -3.0625 C 8.40625 -3.5625 8.671875 -4.25 8.671875 -5.125 C 8.671875 -6 8.40625 -6.6875 7.875 -7.1875 C 7.34375 -7.6875 6.632812 -7.9375 5.75 -7.9375 L 3.921875 -7.9375 L 3.921875 -2.3125 Z M 5.75 -2.3125 "/></g></g></g><g fill="#ffffff" fill-opacity="1"><g transform="translate(17.620459, 14.582876)"><g><path d="M 1.03125 -10.25 L 3.921875 -10.25 L 3.921875 0 L 1.03125 0 Z M 1.03125 -10.25 "/></g></g></g><g fill="#ffffff" fill-opacity="1"><g transform="translate(26.974125, 14.582876)"><g><path d="M 7.890625 -5.34375 L 10.453125 -5.34375 L 10.453125 -1.09375 C 9.867188 -0.675781 9.195312 -0.351562 8.4375 -0.125 C 7.675781 0.09375 6.914062 0.203125 6.15625 0.203125 C 5.070312 0.203125 4.101562 -0.0195312 3.25 -0.46875 C 2.394531 -0.925781 1.722656 -1.5625 1.234375 -2.375 C 0.742188 -3.1875 0.5 -4.101562 0.5 -5.125 C 0.5 -6.144531 0.742188 -7.0625 1.234375 -7.875 C 1.722656 -8.6875 2.398438 -9.316406 3.265625 -9.765625 C 4.128906 -10.222656 5.109375 -10.453125 6.203125 -10.453125 C 7.160156 -10.453125 8.019531 -10.289062 8.78125 -9.96875 C 9.539062 -9.644531 10.175781 -9.179688 10.6875 -8.578125 L 8.84375 -6.90625 C 8.144531 -7.664062 7.316406 -8.046875 6.359375 -8.046875 C 5.472656 -8.046875 4.757812 -7.78125 4.21875 -7.25 C 3.6875 -6.71875 3.421875 -6.007812 3.421875 -5.125 C 3.421875 -4.5625 3.539062 -4.054688 3.78125 -3.609375 C 4.03125 -3.160156 4.375 -2.8125 4.8125 -2.5625 C 5.25 -2.320312 5.753906 -2.203125 6.328125 -2.203125 C 6.878906 -2.203125 7.398438 -2.3125 7.890625 -2.53125 Z M 7.890625 -5.34375 "/></g></g></g><g fill="#ffffff" fill-opacity="1"><g transform="translate(42.634585, 14.582876)"><g><path d="M 1.03125 -10.25 L 3.921875 -10.25 L 3.921875 0 L 1.03125 0 Z M 1.03125 -10.25 "/></g></g></g><g fill="#ffffff" fill-opacity="1"><g transform="translate(51.988251, 14.582876)"><g><path d="M 3.203125 -7.953125 L 0.0625 -7.953125 L 0.0625 -10.25 L 9.234375 -10.25 L 9.234375 -7.953125 L 6.109375 -7.953125 L 6.109375 0 L 3.203125 0 Z M 3.203125 -7.953125 "/></g></g></g><g fill="#ffffff" fill-opacity="1"><g transform="translate(65.673264, 14.582876)"><g><path d="M 7.890625 -1.984375 L 3.5625 -1.984375 L 2.75 0 L -0.203125 0 L 4.3125 -10.25 L 7.171875 -10.25 L 11.71875 0 L 8.703125 0 Z M 7.046875 -4.125 L 5.71875 -7.40625 L 4.40625 -4.125 Z M 7.046875 -4.125 "/></g></g></g><g fill="#ffffff" fill-opacity="1"><g transform="translate(81.567844, 14.582876)"><g><path d="M 1.03125 -10.25 L 3.921875 -10.25 L 3.921875 -2.296875 L 8.8125 -2.296875 L 8.8125 0 L 1.03125 0 Z M 1.03125 -10.25 "/></g></g></g></g></g><g transform="matrix(1, 0, 0, 1, 173, 116)"><g clip-path="url(#c43234a580)"><g clip-path="url(#69ad613805)"><g fill="#ffffff" fill-opacity="1"><g transform="translate(0.669763, 80.326482)"><g><path d="M 23.484375 0.9375 C 19.378906 0.9375 15.832031 0.0390625 12.84375 -1.75 C 9.863281 -3.539062 7.585938 -5.953125 6.015625 -8.984375 C 4.441406 -12.015625 3.65625 -15.316406 3.65625 -18.890625 C 3.65625 -22.378906 4.460938 -25.660156 6.078125 -28.734375 C 7.703125 -31.816406 10.003906 -34.300781 12.984375 -36.1875 C 15.972656 -38.070312 19.375 -39.015625 23.1875 -39.015625 C 26.863281 -39.015625 30.203125 -38.15625 33.203125 -36.4375 C 36.210938 -34.71875 38.578125 -32.328125 40.296875 -29.265625 C 42.015625 -26.210938 42.875 -22.78125 42.875 -18.96875 L 42.875 -18.609375 L 8.65625 -18.609375 C 8.75 -15.703125 9.425781 -13.125 10.6875 -10.875 C 11.957031 -8.632812 13.691406 -6.894531 15.890625 -5.65625 C 18.085938 -4.414062 20.617188 -3.796875 23.484375 -3.796875 C 26.867188 -3.796875 29.632812 -4.582031 31.78125 -6.15625 C 33.925781 -7.726562 35.832031 -9.875 37.5 -12.59375 L 41.59375 -10.453125 C 39.726562 -6.867188 37.253906 -4.070312 34.171875 -2.0625 C 31.097656 -0.0625 27.535156 0.9375 23.484375 0.9375 Z M 37.5 -22.90625 C 36.550781 -26.675781 34.800781 -29.515625 32.25 -31.421875 C 29.695312 -33.328125 26.703125 -34.28125 23.265625 -34.28125 C 19.773438 -34.28125 16.828125 -33.335938 14.421875 -31.453125 C 12.015625 -29.566406 10.257812 -26.71875 9.15625 -22.90625 Z M 37.5 -22.90625 "/></g></g></g></g></g></g><g clip-path="url(#a275063de8)"><g clip-path="url(#0cdf386783)"><g clip-path="url(#3eceb651f5)"><g transform="matrix(1, 0, 0, 1, 146, 140)"><g clip-path="url(#8f0fef1cb6)"><g clip-path="url(#a90dd9b8a1)"><g clip-path="url(#a413de6599)"><g clip-path="url(#0f651c3e51)"><path fill="#4a7b5a" d="M 0.65625 13.734375 L 0.414062 0.808594 L 10.03125 0.628906 L 10.273438 13.554688 Z M 0.65625 13.734375 " fill-opacity="1" fill-rule="nonzero"/></g></g></g></g></g></g></g></g></svg>