<svg xmlns="http://www.w3.org/2000/svg" viewBox="0 0 100 100">
  <circle cx="50" cy="50" r="50" fill="#4a7b5a"/>
  <g transform="translate(15, 79) scale(1.5)">
    <path d="M 23.109375 0.9375 C 19.484375 0.9375 16.191406 0.03125 13.234375 -1.78125 C 10.273438 -3.601562 7.9375 -6.050781 6.21875 -9.125 C 4.507812 -12.195312 3.65625 -15.523438 3.65625 -19.109375 C 3.65625 -22.679688 4.523438 -25.984375 6.265625 -29.015625 C 8.003906 -32.046875 10.375 -34.46875 13.375 -36.28125 C 16.382812 -38.09375 19.679688 -39 23.265625 -39 C 26.359375 -39 29.191406 -38.332031 31.765625 -37 C 34.347656 -35.664062 36.566406 -33.6875 38.421875 -31.0625 L 38.421875 -38 L 43.21875 -38 L 43.21875 0 L 38.421875 0 L 38.421875 -6.515625 C 36.378906 -4.035156 34.066406 -2.171875 31.484375 -0.921875 C 28.910156 0.316406 26.117188 0.9375 23.109375 0.9375 Z M 23.609375 -3.5 C 26.234375 -3.5 28.710938 -4.128906 31.046875 -5.390625 C 33.390625 -6.660156 35.265625 -8.453125 36.671875 -10.765625 C 38.078125 -13.078125 38.78125 -15.765625 38.78125 -18.828125 C 38.78125 -21.734375 38.113281 -24.351562 36.78125 -26.6875 C 35.445312 -29.03125 33.632812 -30.878906 31.34375 -32.234375 C 29.050781 -33.597656 26.5 -34.28125 23.6875 -34.28125 C 20.875 -34.28125 18.3125 -33.578125 16 -32.171875 C 13.6875 -30.765625 11.882812 -28.890625 10.59375 -26.546875 C 9.300781 -24.210938 8.65625 -21.6875 8.65625 -18.96875 C 8.65625 -16.25 9.3125 -13.707031 10.625 -11.34375 C 11.9375 -8.976562 13.738281 -7.078125 16.03125 -5.640625 C 18.320312 -4.210938 20.847656 -3.5 23.609375 -3.5 Z" fill="#ffffff" fill-rule="evenodd"/>
  </g>
</svg>
